<?xml version="1.0" encoding="UTF-8" standalone="no"?>
<!-- Created with Inkscape (http://www.inkscape.org/) -->

<svg
   width="1304.8374"
   height="460.07224"
   viewBox="0 0 1304.8374 460.07224"
   version="1.1"
   id="svg5"
   xml:space="preserve"
   xmlns="http://www.w3.org/2000/svg"
   xmlns:svg="http://www.w3.org/2000/svg"><defs
     id="defs2" /><g
     id="g389"
     transform="matrix(0.13333333,0,0,-0.13333333,1742.8519,3295.0455)"><g
       id="layer3"><rect
         style="display:inline;fill:#1d1d2c;fill-opacity:1;stroke-width:7.5"
         id="rect1211"
         width="9786.2812"
         height="3450.5417"
         x="-13071.39"
         y="-24712.842"
         transform="scale(1,-1)"
         rx="90"
         ry="90" /></g><rect
       style="fill:#f2f2f2;fill-opacity:1;stroke-width:7.5"
       id="rect1525"
       width="2388.0867"
       height="2134.6572"
       x="-12705.434"
       y="-24022.246"
       transform="scale(1,-1)"
       rx="90"
       ry="90" /><g
       id="layer1"
       transform="matrix(7.5000002,0,0,-7.5000002,-14475,25941.001)"
       style="fill:#f2f2f2"><text
         xml:space="preserve"
         style="font-size:192px;line-height:0;font-family:Geneva;-inkscape-font-specification:Geneva;fill:#f2f2f2"
         x="589.74731"
         y="393.79062"
         id="text113"><tspan
           style="font-style:normal;font-variant:normal;font-weight:normal;font-stretch:normal;font-size:192px;line-height:1;font-family:Newake;-inkscape-font-specification:Newake;fill:#f2f2f2"
           id="tspan283"
           x="589.74731"
           y="393.79062">01000110 </tspan><tspan
           x="589.74731"
           y="547.39062"
           style="font-style:normal;font-variant:normal;font-weight:normal;font-stretch:normal;font-size:192px;line-height:0.6;font-family:Newake;-inkscape-font-specification:Newake;fill:#f2f2f2"
           id="tspan165">01000010</tspan></text></g><path
       d="m -11999.262,22408.676 c -21.327,0 -42.705,9.024 -59.508,27.264 l -433.587,470.503 c -17.612,19.117 -27.608,45.841 -27.608,73.816 0,27.975 9.996,54.699 27.608,73.811 l 216.793,235.259 216.794,235.249 c 35.142,38.138 90.289,36.004 123.163,-4.761 32.878,-40.764 31.038,-104.728 -4.104,-142.866 l -365.566,-396.692 365.566,-396.692 c 35.142,-38.138 36.982,-102.102 4.104,-142.866 -17.154,-21.273 -40.377,-32.025 -63.655,-32.025"
       style="fill:#1d1d2c;fill-opacity:1;fill-rule:nonzero;stroke:none;stroke-width:0.0496646"
       id="path393" /><path
       d="m -11063.961,22408.676 c -23.278,0 -46.496,10.752 -63.654,32.025 -32.874,40.764 -31.039,104.728 4.108,142.866 l 365.561,396.692 -148.77,161.444 -216.791,235.248 c -35.147,38.138 -36.982,102.102 -4.108,142.866 32.878,40.765 88.02,42.899 123.162,4.761 l 216.791,-235.249 216.796,-235.259 c 17.615,-19.112 27.608,-45.836 27.608,-73.811 0,-27.975 -9.993,-54.699 -27.608,-73.816 l -433.587,-470.503 c -16.803,-18.235 -38.181,-27.264 -59.508,-27.264"
       style="fill:#1d1d2c;fill-opacity:1;fill-rule:nonzero;stroke:none;stroke-width:0.0496646"
       id="path397" /><path
       d="m -11725.618,22243.323 c -10.094,0 -20.359,2.054 -30.375,6.376 -45.103,19.464 -68.063,77.662 -51.278,129.98 l 380.24,1185.369 c 16.78,52.319 66.946,78.952 112.054,59.487 45.103,-19.471 68.063,-77.663 51.278,-129.986 l -380.239,-1185.37 c -13.055,-40.695 -46.316,-65.856 -81.68,-65.856"
       style="fill:#1d1d2c;fill-opacity:1;fill-rule:nonzero;stroke:none;stroke-width:0.0496646"
       id="path399" /></g></svg>
